<?xml version="1.0" encoding="UTF-8" standalone="no"?><!DOCTYPE svg PUBLIC "-//W3C//DTD SVG 1.1//EN" "http://www.w3.org/Graphics/SVG/1.1/DTD/svg11.dtd"><svg width="100%" height="100%" viewBox="0 0 98 110" version="1.1" xmlns="http://www.w3.org/2000/svg" xmlns:xlink="http://www.w3.org/1999/xlink" xml:space="preserve" xmlns:serif="http://www.serif.com/" style="fill-rule:evenodd;clip-rule:evenodd;stroke-linejoin:round;stroke-miterlimit:2;"><path d="M70.46,21.74c-1.496,3.065 -2.763,6.237 -3.79,9.49c-1,-0.23 -2.09,-0.39 -3.12,-0.52c-0.84,-7.72 -0.34,-15.81 1.74,-20.48c1.56,-3.51 3.58,-6 5.42,-7.15c0.901,-0.543 1.951,-0.788 3,-0.7c4.16,0.62 5.53,11.16 5.53,11.16c0,0 0.89,0.36 1,0.36c0.127,-1.3 0.08,-2.612 -0.14,-3.9c-0.192,-1.434 -0.507,-2.849 -0.94,-4.23c-0.58,-1.84 -1.648,-3.488 -3.09,-4.77c-1.19,-0.756 -2.594,-1.107 -4,-1c-0.429,0.03 -0.857,0.084 -1.28,0.16c-1.896,0.51 -3.651,1.448 -5.13,2.74c-2.585,2.183 -4.931,4.633 -7,7.31c-5.049,5.969 -9.626,12.321 -13.69,19l-2.83,-5.73c-4.704,1.353 -9.261,3.175 -13.6,5.44c-3.901,1.996 -7.497,4.538 -10.68,7.55l4.8,10.5l0.23,-0.11c-1.487,1.935 -2.684,4.078 -3.55,6.36c0,-0.12 0,-0.24 -0.07,-0.35c-0.247,-0.864 -0.621,-1.686 -1.11,-2.44c-0.13,-0.21 -3.46,-4.29 -3.86,-7.72c0.611,0.313 1.182,0.699 1.7,1.15l-0.83,-7.22l-5.63,4.56l1.83,0.49c-0.121,0.145 -0.212,0.311 -0.27,0.49c-0.92,2.79 4.32,10.41 4.43,10.7c0.117,0.292 0.211,0.593 0.28,0.9c0.152,0.656 0.183,1.333 0.09,2c-0.23,1.51 -1.037,2.873 -2.25,3.8c-0.621,0.463 -1.313,0.821 -2.05,1.06c-0.836,0.29 -1.735,0.345 -2.6,0.16c-1.441,-0.291 -2.734,-1.081 -3.65,-2.23c-0.883,-1.156 -1.307,-2.6 -1.19,-4.05c0,-0.249 0.031,-0.498 0.09,-0.74c0.168,-0.87 0.538,-1.689 1.08,-2.39c0.493,-0.629 1.105,-1.155 1.8,-1.55c0.21,-0.13 -0.63,-3.67 -0.88,-3.56c-0.839,0.382 -1.628,0.866 -2.35,1.44c-0.687,0.611 -1.298,1.303 -1.82,2.06c-0.574,0.843 -0.985,1.786 -1.21,2.78c-0.134,0.585 -0.214,1.181 -0.24,1.78c-0.046,0.526 -0.046,1.054 0,1.58c0.094,0.916 0.316,1.815 0.66,2.67c0.312,0.791 0.744,1.53 1.28,2.19c0.599,0.762 1.303,1.435 2.09,2c0.904,0.634 1.923,1.086 3,1.33c0.788,0.201 1.597,0.305 2.41,0.31c-2.79,2.46 -5.73,5.2 -6.64,8.34c-0.373,1.113 -0.519,2.29 -0.43,3.46c0.06,1.192 0.381,2.356 0.94,3.41c0.497,1.038 1.174,1.979 2,2.78c0.672,0.628 1.426,1.162 2.24,1.59c0.21,0.1 0.42,0.19 0.61,0.26c0.162,0.044 0.291,0.169 0.34,0.33l-9.13,5.73l1.79,2.84c0.065,0.05 0.155,0.05 0.22,0l10.75,-6.79c2.48,-0.091 4.964,-0.055 7.44,0.11c-0.356,0.263 -0.691,0.553 -1,0.87c-0.47,0.46 -5.93,4.92 -6.34,5.56c0.567,0.905 1.239,1.741 2,2.49c0.8,-0.53 1.57,-1.31 1.57,-1.26c0.162,0.941 0.4,1.867 0.71,2.77c0.357,0.944 0.894,1.81 1.58,2.55c0.386,0.396 0.8,0.764 1.24,1.1c0.375,0.305 0.777,0.576 1.2,0.81c0.738,0.412 1.539,0.699 2.37,0.85c0.771,0.141 1.558,0.185 2.34,0.13c1.134,-0.225 2.248,-0.543 3.33,-0.95c0.601,-0.306 1.162,-0.686 1.67,-1.13c0.58,-0.515 1.094,-1.099 1.53,-1.74c0.426,-0.616 0.763,-1.289 1,-2c2.38,3.3 7,7.34 15.45,7.29c2.156,-0.078 4.302,-0.322 6.42,-0.73c8.294,-1.499 15.853,-5.727 21.47,-12.01c2.646,-2.992 4.478,-6.616 5.32,-10.52c0.768,-3.85 0.421,-7.84 -1,-11.5c-1.446,-3.772 -3.861,-7.097 -7,-9.64c-1.58,-1.32 -7.59,-4.85 -12.73,-5.53c-3.588,-0.383 -7.216,-0.043 -10.67,1c-3.419,0.982 -6.38,3.148 -8.35,6.11c-4.26,5.86 -0.14,12.28 2.13,15.07c0.593,1.213 1.601,2.175 2.84,2.71c4.53,1.92 11.4,-0.85 10.09,-4.48c-0.3,-0.83 -5,2 -7.27,-0.07c-4,-3.52 8.26,-11.46 13,-1.51c3.22,6.75 -6.15,14.91 -17.28,13.74c-6.26,-0.66 -13.38,-3.94 -18.4,-12.82c-4.22,-7.44 -3.16,-24.78 18.87,-31.26c7.454,-2.308 15.454,-2.178 22.83,0.37c7.739,2.61 14.447,7.625 19.14,14.31c4.693,6.685 6.58,-8.06 -3.19,-16.77l6.35,-6c0,0 -7.65,-10.25 -21,-12.5m-13.42,0.13c0.71,-2.8 2,-4.89 3,-4.68c1,0.21 1,2.85 0.38,5.43c-0.71,2.8 -2,4.81 -3,4.6c-1,-0.21 -1.08,-2.56 -0.38,-5.35m-18.61,5.29c1.218,-0.665 2.768,-0.215 3.44,1l1.67,3.39c-0.69,1.21 -1,1.89 -1,1.89c-1.18,0.44 -2.29,0.9 -3.33,1.37l-0.17,-0.28l-2,-4.06c-0.522,-1.284 0.093,-2.771 1.37,-3.31m-7.77,3.73c1.219,-0.66 2.764,-0.21 3.44,1l1.96,4.06l0.16,0.31c-1.94,1 -3.51,2 -4.64,2.69l-0.32,-0.65l-2,-4.07c-0.522,-1.284 0.093,-2.771 1.37,-3.31m-17.83,35.29c1.922,-1.53 3.642,-3.298 5.12,-5.26c-0.151,2.405 -0.077,4.819 0.22,7.21c-0.238,-0.194 -0.488,-0.371 -0.75,-0.53c-0.884,-0.573 -1.863,-0.986 -2.89,-1.22c-0.58,-0.132 -1.176,-0.185 -1.77,-0.16l0.07,-0.06m7.57,14.25c0.376,-0.651 0.678,-1.342 0.9,-2.06c1.043,2.012 2.337,3.883 3.85,5.57c-2.442,-0.479 -4.922,-0.737 -7.41,-0.77l0.65,-0.46c0.816,-0.603 1.497,-1.369 2,-2.25m-12.5,-1.31c-0.688,-0.813 -1.119,-1.812 -1.24,-2.87c-0.12,-0.921 -0.017,-1.857 0.3,-2.73c0.198,-0.5 0.467,-0.968 0.8,-1.39c0.35,-0.453 0.753,-0.862 1.2,-1.22c0.687,-0.507 1.48,-0.849 2.32,-1c1.545,-0.315 3.154,0.006 4.46,0.89c1.188,0.794 2.032,2.009 2.36,3.4c0.118,0.559 0.175,1.129 0.17,1.7c-0.074,0.857 -0.312,1.692 -0.7,2.46c-0.458,0.88 -1.15,1.617 -2,2.13c-0.229,0.143 -0.47,0.267 -0.72,0.37c-0.266,0.11 -0.541,0.2 -0.82,0.27c-0.27,0.07 -0.54,0.13 -0.78,0.17l-0.62,0.08c-0.865,0.015 -1.721,-0.174 -2.5,-0.55c-0.865,-0.391 -1.628,-0.976 -2.23,-1.71m22.73,15.42c-0.092,0.57 -0.271,1.123 -0.53,1.64c-0.258,0.469 -0.596,0.889 -1,1.24c-0.359,0.338 -0.759,0.631 -1.19,0.87c-0.397,0.22 -0.82,0.388 -1.26,0.5c-0.393,0.097 -0.795,0.154 -1.2,0.17c-1.203,0.037 -2.383,-0.333 -3.35,-1.05c-0.721,-0.467 -1.293,-1.129 -1.65,-1.91c-0.329,-0.685 -0.513,-1.431 -0.54,-2.19c-0.016,-0.644 0.075,-1.286 0.27,-1.9c0.201,-0.717 0.56,-1.38 1.05,-1.94c0.474,-0.598 1.089,-1.069 1.79,-1.37c0.619,-0.26 1.279,-0.409 1.95,-0.44c0.673,-0.045 1.349,0.023 2,0.2c0.696,0.19 1.342,0.531 1.89,1c0.501,0.44 0.921,0.965 1.24,1.55c0.287,0.557 0.476,1.159 0.56,1.78c0.095,0.603 0.095,1.217 0,1.82m18.23,6.56c-1.803,0.104 -3.61,-0.127 -5.33,-0.68c-1.66,-0.67 -6.11,-1.73 -9.46,-10c3.236,1.466 6.687,2.402 10.22,2.77l4.8,7.91l-0.23,0m5.93,-0.6c-0.5,0.093 -1,0.173 -1.5,0.24l2.54,-8.13c0.44,-0.11 0.87,-0.23 1.3,-0.37l8,4.82c-3.248,1.65 -6.722,2.81 -10.31,3.44m16,-22.15l4.81,3.64l-6.91,1.55c1,-1.593 1.71,-3.35 2.1,-5.19m-4.4,-12.91l6,-0.57l-2.88,4.61c-0.825,-1.499 -1.893,-2.851 -3.16,-4m8.43,24.21c-1.931,2.165 -4.148,4.055 -6.59,5.62l-1.41,-8.89l11.67,-2.62l0.18,0c-0.966,2.169 -2.265,4.173 -3.85,5.94m4.33,-20.07c1.238,3.369 1.488,7.023 0.72,10.53c-0.14,0.63 -0.33,1.26 -0.53,1.87l-0.4,-0.31l-7.92,-6c0.03,-0.486 0.03,-0.974 0,-1.46c-0.048,-0.8 -0.189,-1.592 -0.42,-2.36l4.81,-7.72c0.2,-0.32 0.3,-0.56 0.36,-0.66c1.472,1.818 2.628,3.87 3.42,6.07m-16.79,-14c1.937,0.435 3.818,1.086 5.61,1.94c1.771,0.768 3.427,1.777 4.92,3c0.708,0.596 1.376,1.237 2,1.92l-0.5,0l-0.12,0l-10.39,1l-0.12,-0.07l-2.48,-7.8c-0.032,-0.1 -0.079,-0.195 -0.14,-0.28c0.41,0.07 0.83,0.14 1.24,0.24m-2.61,-0.4c-0.048,0.038 -0.092,0.082 -0.13,0.13l-5.19,6.42c-0.16,0 -0.32,0.07 -0.48,0.12l-0.08,0l-5.4,-4.64c0.64,-0.357 1.309,-0.658 2,-0.9c2.978,-0.954 6.109,-1.344 9.23,-1.15m-17.76,9.35c0.725,-2.38 2.243,-4.442 4.3,-5.84l-0.22,7.32c-1.698,1.718 -2.567,4.092 -2.38,6.5c-2,-3.44 -2.31,-5.75 -1.73,-8m5.83,0.06l0.14,-5.54l4.14,3.51c-1.481,0.481 -2.893,1.153 -4.2,2m9.31,-3.07l2.89,-3.51l1.39,4.4c-1.367,-0.525 -2.816,-0.806 -4.28,-0.83m7.2,26.9l0.83,5.53l-4.88,-3c1.423,-0.704 2.765,-1.563 4,-2.56m-11.87,4.83l-1.59,5.07l-2.95,-4.86c1.516,0.014 3.032,-0.056 4.54,-0.21m-27.68,-48.65l-1.23,-2.52l-2,-4.07c-0.522,-1.281 0.094,-2.765 1.37,-3.3c0.374,-0.206 0.794,-0.314 1.221,-0.314c0.923,0 1.776,0.505 2.219,1.314l2,4.06l0.55,1.13c-1.488,1.115 -2.867,2.367 -4.12,3.74m45.34,-12.51c1.73,-2.53 4.49,-6 6.08,-5.11c1.59,0.89 0.17,4.46 -1.06,7.08c-0.66,-0.3 -1.34,-0.6 -2,-0.89c-1,-0.42 -2,-0.76 -3,-1.08m8.06,3.46c1.63,-1.92 3.9,-4 5.53,-3.36c1.63,0.64 0.13,3.59 -1.41,5.83c-1.326,-0.9 -2.701,-1.725 -4.12,-2.47" style="fill:#010101;fill-rule:nonzero;"/><path d="M72.21,15.6c0,0 14.89,1.78 22.88,12.76c-0.23,0.48 2.3,-1.44 2.3,-1.44c0,0 -6,-10.43 -23.86,-13.66l-1.32,2.34Z" style="fill:#010101;fill-rule:nonzero;"/><path d="M70.13,17.4l-0.84,2.76c0,0 14.71,1.58 23.71,14.02c0.43,0.6 2.74,-1.65 2.74,-1.65c0,0 -6.31,-13.38 -25.61,-15.13" style="fill:#010101;fill-rule:nonzero;"/><path d="M60.33,51.35c-0.2,1 0.17,1.88 0.83,2c0.66,0.12 1.29,-0.63 1.5,-1.6c0.21,-0.97 -0.06,-1.79 -0.73,-1.93c-0.67,-0.14 -1.38,0.53 -1.6,1.51" style="fill:#010101;fill-rule:nonzero;"/><path d="M68.66,98.78c-0.77,0.55 -0.74,1.89 0.07,3c0.81,1.11 2.1,1.59 2.86,1c0.76,-0.59 0.74,-1.9 -0.07,-3c-0.81,-1.1 -2.09,-1.59 -2.86,-1" style="fill:#010101;fill-rule:nonzero;"/><path d="M44.68,51.88c-0.56,0.25 -0.71,1.12 -0.35,1.94c0.36,0.82 1.12,1.29 1.69,1c0.57,-0.29 0.72,-1.11 0.35,-1.93c-0.37,-0.82 -1.13,-1.29 -1.69,-1" style="fill:#010101;fill-rule:nonzero;"/><path d="M77.27,59c-0.88,0.65 -1.25,1.65 -0.8,2.25c0.45,0.6 1.52,0.55 2.4,-0.1c0.88,-0.65 1.24,-1.66 0.79,-2.25c-0.45,-0.59 -1.51,-0.55 -2.39,0.1" style="fill:#010101;fill-rule:nonzero;"/><path d="M83.89,83.13c-1.16,-0.31 -2.29,0.07 -2.5,0.85c-0.21,0.78 0.55,1.69 1.72,2c1.17,0.31 2.3,-0.07 2.51,-0.85c0.21,-0.78 -0.55,-1.69 -1.73,-2" style="fill:#010101;fill-rule:nonzero;"/><path d="M51.39,105c-0.94,0.1 -1.59,1.29 -1.43,2.66c0.16,1.37 1,2.4 2,2.3c1,-0.1 1.59,-1.3 1.43,-2.67c-0.16,-1.37 -1,-2.39 -2,-2.29" style="fill:#010101;fill-rule:nonzero;"/><path d="M16,35.19c7.374,-6.692 16.317,-11.418 26,-13.74l-1.43,-3.25c-9.495,2.833 -18.314,7.569 -25.92,13.92l1.35,3.07Z" style="fill:#010101;fill-rule:nonzero;"/><path d="M16,29.25c1.504,-1.256 3.076,-2.428 4.71,-3.51c-0.26,-0.77 -3.32,-7.42 -1.39,-13c-0.792,0.326 -1.566,0.694 -2.32,1.1c-5,6.42 -1,15 -1,15l0,0.41Z" style="fill:#010101;fill-rule:nonzero;"/><path d="M33.66,19.15c1.408,-0.613 2.859,-1.125 4.34,-1.53c-4.91,-8.57 -12.47,-8 -12.47,-8l-2.33,1.05c6.89,1.67 10.44,8.52 10.44,8.52" style="fill:#010101;fill-rule:nonzero;"/><path d="M22,11.35l-1.4,0.67c0,0 -1.15,5.17 2.4,12.39c2.726,-1.669 5.566,-3.143 8.5,-4.41l0.09,0c-2,-5.73 -9.57,-8.65 -9.57,-8.65" style="fill:#010101;fill-rule:nonzero;"/><path d="M16.42,13.34l8.66,-4.25l-1.08,-2.17l-1.27,0.62l-1.2,-2.47c-1.326,-0.128 -2.563,-0.724 -3.49,-1.68c-0.249,-0.293 -0.685,-0.35 -1,-0.13c-0.64,0.35 -0.46,0.85 -0.46,0.85c0.183,1.335 -0.13,2.691 -0.88,3.81l1.2,2.48l-1.56,0.77l1.08,2.17Zm2.73,-4.46l-0.46,-1c-0.099,-0.283 0.037,-0.597 0.31,-0.72c0.28,-0.157 0.64,-0.058 0.8,0.22l0.46,1l0.17,0.34l-1.12,0.55l-0.16,-0.39Zm2.46,-2.36l0.47,1l0.16,0.32l-1.12,0.55l-0.12,-0.39l-0.45,-1c-0.031,-0.072 -0.047,-0.149 -0.047,-0.227c0,-0.236 0.146,-0.449 0.367,-0.533c0.088,-0.054 0.189,-0.083 0.293,-0.083c0.209,0 0.401,0.117 0.497,0.303m-4.32,3.3l-0.46,-0.95c-0.037,-0.079 -0.056,-0.166 -0.056,-0.253c0,-0.245 0.149,-0.466 0.376,-0.557c0.088,-0.05 0.187,-0.077 0.288,-0.077c0.214,0 0.411,0.118 0.512,0.307l0.46,1l0.17,0.34l-1.12,0.55l-0.17,-0.36Z" style="fill:#010101;fill-rule:nonzero;"/></svg>